<svg version="1.0" xmlns="http://www.w3.org/2000/svg" width="130" height="128.673" viewBox="0 0 97.5 96.505"><path d="M45.019 0.099c-1.055 0.08 -4.328 0.567 -6.168 0.905C32.424 2.209 25.241 5.432 19.5 9.7c-4.358 3.243 -8.367 7.462 -11.392 11.989C2.985 29.379 0.279 37.926 0.03 47.208c-0.338 13.023 4.706 25.539 14.068 34.931 6.905 6.915 15.311 11.471 24.753 13.411 6.825 1.413 15.302 1.164 22.544 -0.637 3.671 -0.915 8.098 -2.726 11.68 -4.766 4.885 -2.786 9.66 -6.795 13.262 -11.133C95.152 68.409 99.002 54.63 96.943 41.089c-1.363 -8.934 -5.094 -17.122 -10.914 -23.967 -1.264 -1.492 -4.169 -4.368 -5.641 -5.581C72.299 4.835 62.599 0.915 52.332 0.209 50.292 0.07 46.193 0.01 45.019 0.099zm9.173 6.556c4.835 0.627 8.646 1.801 13.212 4.039 8.874 4.368 15.192 10.616 19.42 19.202 3.711 7.531 5.064 15.988 3.9 24.315 -0.657 4.666 -1.691 7.86 -4.169 12.804 -2.288 4.557 -4.228 7.263 -7.71 10.745 -2.368 2.368 -4.119 3.81 -6.795 5.552 -4.298 2.816 -10.108 5.263 -14.675 6.178 -1.851 0.368 -3.452 0.448 -8.765 0.448 -5.233 0 -6.497 -0.07 -8.367 -0.468 -5.134 -1.074 -12.426 -4.238 -16.177 -7.004 -3.214 -2.378 -7.989 -7.203 -10.158 -10.247 -1.552 -2.189 -3.432 -5.631 -4.487 -8.248 -2.069 -5.094 -2.875 -9.591 -2.895 -16.117 -0.01 -4.079 0.209 -6.228 0.945 -9.253 1.811 -7.392 5.81 -14.496 11.232 -19.898 6.696 -6.676 15.262 -10.854 24.723 -12.038 2.258 -0.279 2.239 -0.279 5.87 -0.249 2.666 0.02 3.592 0.07 4.895 0.239z"/><path d="M47.705 16.714c-0.507 0.199 -1.592 1.741 -3.472 4.925 -1.104 1.86 -2.537 4.606 -2.736 5.243 -0.259 0.796 0.119 1.055 1.731 1.194 0.597 0.05 1.373 0.119 1.721 0.139l0.617 0.06v12.595c0 11.581 -0.08 16.625 -0.279 17.53 -0.06 0.249 -0.139 0.358 -0.289 0.378 -0.497 0.07 -2.706 -1.313 -3.96 -2.487 -1.751 -1.642 -3.293 -5.243 -3.502 -8.198 -0.08 -1.184 -0.02 -1.383 0.736 -2.278 1.005 -1.214 1.423 -2.268 1.423 -3.602 0 -0.786 -0.209 -1.154 -1.174 -2.119 -1.273 -1.273 -1.433 -1.343 -3.204 -1.343 -1.731 0 -1.92 0.07 -3.074 1.184 -1.084 1.045 -1.303 1.433 -1.303 2.288 0 1.303 0.418 2.348 1.443 3.631 0.895 1.134 1.045 1.492 1.204 2.925 0.229 2.079 0.915 4.318 1.98 6.487 0.955 1.93 2.079 3.323 3.87 4.766 1.681 1.363 2.567 1.851 4.875 2.706l1.273 0.468 -0.04 1.552c-0.04 1.89 -0.08 1.98 -1.174 2.756 -1.96 1.373 -2.865 2.835 -2.965 4.805 -0.06 1.134 0.08 1.831 0.537 2.696 0.796 1.512 2.089 2.706 3.353 3.104 0.627 0.199 0.925 0.229 2.408 0.229 2.358 0 3.114 -0.249 4.368 -1.433 0.696 -0.667 1.701 -2.139 1.86 -2.726 0.139 -0.517 0.129 -2.169 -0.02 -2.985 -0.159 -0.895 -0.507 -1.552 -1.244 -2.348 -0.657 -0.706 -1.701 -1.552 -2.099 -1.711 -0.607 -0.229 -0.716 -1.104 -0.716 -5.313 0 -2.875 0.099 -4.785 0.269 -5.084 0.06 -0.099 0.448 -0.259 0.975 -0.388 1.194 -0.298 2.835 -0.955 3.681 -1.462 2.577 -1.542 5.154 -4.437 6.467 -7.293 0.826 -1.781 1.134 -3.154 1.134 -5.014 0 -1.492 0.02 -1.522 1.065 -1.612 0.945 -0.08 1.393 -0.289 1.572 -0.726 0.438 -1.035 0.448 -5.701 0.02 -7.004 -0.109 -0.328 -0.169 -0.378 -0.617 -0.497 -0.905 -0.229 -4.258 -0.368 -5.81 -0.239 -0.776 0.06 -1.492 0.159 -1.602 0.219 -0.119 0.06 -0.259 0.229 -0.318 0.378 -0.159 0.388 -0.219 3.611 -0.09 5.283 0.119 1.681 0.249 2.02 0.895 2.398 0.746 0.428 0.856 0.657 0.856 1.771 0 1.124 -0.229 1.99 -0.866 3.253 -1.443 2.885 -3.9 5.343 -6.815 6.805L49.844 53.028V28.265l0.527 -0.05c0.279 -0.03 0.895 -0.08 1.363 -0.109 1.084 -0.08 1.562 -0.209 1.851 -0.497 0.497 -0.507 0.298 -1.214 -1.204 -4.179 -1.89 -3.731 -3.164 -5.88 -3.87 -6.497 -0.378 -0.328 -0.478 -0.358 -0.806 -0.219z"/><style>path { fill: #000; }
        @media (prefers-color-scheme: dark) {
            path { fill: #FFF; }
        }</style></svg>