<svg version="1.0" xmlns="http://www.w3.org/2000/svg" width="600.957" height="833.001" viewBox="0 0 450.718 624.751"><path d="M245.209 27.872c-4.419 0.748 -8.022 3.263 -9.993 6.934 -1.496 2.923 -1.768 3.059 -6.526 4.215 -7.682 1.768 -23.726 9.042 -27.668 12.509 -1.088 0.952 -1.496 0.952 -4.419 -0.068 -6.662 -2.379 -16.248 -1.088 -24.745 3.399 -8.702 4.555 -12.237 9.517 -16.18 22.706 -2.991 9.789 -3.467 18.491 -1.428 26.445 0.748 3.127 1.428 5.914 1.428 6.186s-1.632 1.292 -3.603 2.243c-2.039 0.952 -5.303 2.787 -7.206 4.079 -3.671 2.379 -7.886 4.555 -20.598 10.537 -8.974 4.215 -14.276 7.614 -16.044 10.061 -1.632 2.379 -2.107 5.846 -2.243 16.52 -0.136 8.09 0 8.702 1.768 12.237 2.311 4.487 17.879 28.348 21.278 32.563 2.651 3.263 7.002 5.574 13.12 6.866 3.399 0.748 3.739 1.02 3.467 2.447 -0.408 2.039 2.243 7.546 6.798 14.208 16.995 24.813 15.636 22.094 17.267 34.535 1.971 14.752 2.923 21.278 3.943 26.989 1.7 9.11 1.496 10.741 -1.632 15.092 -4.487 6.254 -13.256 11.693 -22.162 13.8l-4.691 1.088 -1.836 -2.243c-1.088 -1.224 -1.903 -2.583 -1.903 -2.991 0 -0.476 1.971 -2.379 4.351 -4.215 5.507 -4.351 8.634 -8.226 11.421 -14.14 2.175 -4.555 2.243 -4.895 2.243 -13.528 -0.068 -7.478 -0.272 -9.517 -1.564 -13.188 -1.836 -5.031 -1.971 -4.895 4.623 -6.594 4.827 -1.292 7.206 -2.583 3.399 -1.903 -7.886 1.496 -17.879 6.73 -21.278 11.217 -5.642 7.546 -9.313 18.083 -9.313 26.853 0 6.322 1.971 12.033 6.39 18.355 1.836 2.515 2.991 4.759 2.583 4.895 -1.903 0.612 -4.215 3.127 -4.215 4.555 0 0.884 0.748 2.447 1.632 3.535 2.855 3.467 3.127 4.555 3.127 13.936 0 7.138 -0.34 11.013 -1.836 18.423 -1.836 9.11 -1.836 9.449 -0.748 12.577 0.612 1.768 1.36 4.487 1.632 6.05 0.408 2.651 0.34 2.923 -1.02 2.923 -2.787 0 -6.934 2.175 -7.954 4.215 -0.884 1.768 -0.884 2.379 0.068 6.05 0.952 3.943 0.952 4.283 -0.408 8.294 -1.088 3.059 -1.564 6.73 -1.903 13.256l-0.408 9.042 -5.778 -2.855c-8.022 -4.011 -14.344 -10.401 -18.423 -18.627l-2.991 -5.982 -0.068 -9.245c-0.204 -14.684 1.02 -20.055 8.362 -37.39 5.099 -12.101 11.965 -32.359 13.188 -38.817 1.428 -7.614 1.02 -18.355 -0.952 -27.193 -2.651 -11.965 -7.206 -23.59 -12.305 -31.543 -2.379 -3.739 -2.447 -3.875 -1.292 -5.574 1.088 -1.7 1.088 -1.836 0 -2.447 -0.612 -0.34 -1.156 -1.088 -1.156 -1.564 0 -0.544 -0.476 -1.02 -1.088 -1.02 -1.224 0 -10.741 -19.443 -16.655 -33.991 -4.351 -10.945 -5.303 -11.897 -1.632 -1.632 2.787 7.682 5.71 14.276 11.625 26.377 2.379 4.827 4.351 8.838 4.351 8.906 0 0.136 -1.903 0.34 -4.215 0.476 -4.487 0.34 -14.616 3.943 -20.123 7.138 -1.632 0.884 -3.127 1.496 -3.331 1.292 -0.272 -0.204 -0.272 -0.408 0 -0.408 0.204 0 -2.651 -6.05 -6.39 -13.46 -7.138 -14.14 -11.149 -25.085 -11.897 -32.359 -0.408 -4.079 -0.34 -4.147 1.632 -5.303 1.088 -0.68 2.175 -1.768 2.311 -2.447 0.612 -2.243 -3.671 -16.52 -8.022 -26.921 -1.292 -2.991 -2.107 -5.574 -1.903 -5.778 1.02 -1.088 4.283 4.147 5.303 8.566 2.039 8.838 7.818 23.318 9.313 23.318 0.272 0 1.36 -0.34 2.447 -0.748 1.02 -0.408 4.351 -0.952 7.342 -1.224 4.555 -0.408 5.099 -0.612 3.399 -1.088 -1.836 -0.544 -7.546 0.136 -11.693 1.36 -1.224 0.408 -1.7 0 -2.855 -2.311 -1.632 -3.127 -5.303 -13.392 -7.478 -21.006 -1.292 -4.283 -1.836 -5.167 -4.283 -6.934 -1.496 -1.156 -2.991 -2.039 -3.263 -2.039 -0.34 0 1.088 4.147 3.127 9.178 4.555 11.625 7.954 22.23 7.614 24.269 -0.136 1.02 -1.564 2.447 -4.011 4.079 -4.487 2.923 -7.41 6.186 -7.41 8.226 0 2.651 5.642 16.316 14.344 34.807 0.884 1.836 2.923 5.778 4.555 8.702 2.379 4.283 2.855 5.642 2.379 6.798 -0.952 2.311 -0.408 3.739 1.36 3.399 1.36 -0.272 1.7 0.34 3.671 6.05 1.224 3.467 2.719 8.294 3.331 10.741 1.564 6.254 1.564 20.326 0 28.212 -2.107 10.741 -9.245 38.41 -12.645 48.947 -7.07 22.026 -8.43 46.363 -3.739 66.146 3.671 15.364 10.469 25.425 24.541 36.37l4.147 3.263 0.34 4.555c0.476 5.507 1.564 8.158 3.739 8.702 1.02 0.272 1.564 0.952 1.564 1.903 0.068 4.895 3.059 9.653 8.294 13.12 1.36 0.952 2.719 2.311 2.923 2.991 0.544 1.564 5.031 2.923 14.004 4.419 3.535 0.544 7.546 1.156 8.906 1.428 1.632 0.204 2.923 0.068 3.535 -0.476 0.612 -0.476 1.36 -0.544 1.903 -0.204 0.476 0.272 11.761 0.748 25.017 0.952 21.482 0.408 24.745 0.612 29.776 1.903 6.118 1.564 7.886 1.768 6.118 0.748 -1.971 -1.156 -12.305 -3.263 -18.219 -3.739 -3.195 -0.204 -8.022 -0.884 -10.673 -1.428 -2.719 -0.544 -8.77 -1.224 -13.46 -1.564s-8.702 -0.748 -8.838 -0.884c-0.68 -0.68 1.428 -3.875 2.719 -4.215 5.303 -1.428 22.298 0.408 33.991 3.603 15.296 4.215 15.5 4.351 16.791 6.934 1.768 3.807 3.875 5.167 10.061 6.73 12.916 3.195 24.881 8.022 27.193 10.877 4.759 5.846 6.05 6.934 8.294 6.662 2.039 -0.204 2.243 -0.068 2.719 2.515 0.748 3.399 2.719 5.507 7.002 7.546 4.623 2.175 10.537 2.175 17.471 -0.068 6.73 -2.175 15.976 -2.787 23.658 -1.632 10.537 1.564 13.936 0.884 16.791 -3.399 2.651 -3.943 2.175 -8.702 -1.496 -15.84 -3.467 -6.798 -5.235 -12.645 -6.526 -21.482 -0.68 -4.827 -0.68 -6.39 -0.068 -7.138 0.476 -0.544 1.02 -2.991 1.292 -5.507 0.408 -4.487 0.408 -4.487 2.855 -5.167 4.215 -1.156 8.158 -4.351 13.936 -11.353 2.991 -3.739 7.614 -9.178 10.197 -12.169 10.537 -12.169 15.16 -21.958 17.879 -37.662 1.768 -10.265 1.768 -35.69 0 -45.14l-1.292 -6.662 2.719 -2.855c4.147 -4.283 11.625 -13.46 12.781 -15.568 0.816 -1.428 0.884 -2.447 0.272 -4.419 -1.02 -3.807 -0.816 -12.373 0.408 -16.044 0.884 -2.515 1.02 -4.963 0.816 -10.673 -0.272 -6.594 -0.544 -7.818 -2.447 -11.489 -1.768 -3.535 -2.039 -4.623 -1.7 -7.41 0.476 -4.419 -1.428 -13.664 -3.875 -18.831 -3.875 -7.886 -15.636 -16.588 -23.794 -17.607 -2.583 -0.34 -2.243 -0.068 2.651 1.632 5.71 1.971 13.256 6.526 12.645 7.546 -0.816 1.292 -8.702 2.243 -17.267 2.107l-3.603 -0.068 0.408 -2.991c0.272 -1.7 0.476 -5.642 0.476 -8.838 0 -5.167 0.136 -5.846 1.36 -6.186 0.748 -0.272 2.787 -2.243 4.555 -4.419s6.118 -7.41 9.721 -11.693c3.603 -4.215 7.07 -8.702 7.682 -9.993 0.816 -1.496 1.36 -4.555 1.564 -8.974l0.408 -6.73 2.447 -0.408c4.147 -0.68 12.305 -2.991 14.344 -4.011 4.351 -2.243 10.605 -10.741 16.316 -22.026 4.351 -8.77 5.031 -12.169 5.031 -26.377 0.068 -11.285 -0.068 -12.509 -1.292 -14.276 -2.039 -2.787 -36.234 -19.579 -37.458 -18.355 -0.136 0.136 2.719 1.564 6.322 3.195 10.265 4.487 28.28 13.528 29.64 14.888 2.923 2.855 2.991 19.851 0.136 27.94 -2.175 6.118 -12.713 18.355 -21.822 25.221 -4.691 3.603 -16.995 8.158 -21.346 8.022 -1.36 -0.068 -1.428 -0.136 -0.34 -0.408 0.748 -0.204 1.7 -0.68 2.039 -1.088 0.408 -0.476 1.632 -1.292 2.719 -1.836 1.156 -0.544 2.379 -1.224 2.719 -1.564 0.408 -0.272 2.243 -1.632 4.079 -2.991 10.401 -7.75 19.239 -20.055 23.386 -32.631 1.903 -5.642 2.039 -15.704 0.272 -17.743 -1.224 -1.496 -8.702 -5.642 -11.761 -6.594 -0.952 -0.272 -4.895 -2.039 -8.838 -3.875 -6.594 -3.059 -7.342 -3.671 -9.789 -7.206 -2.855 -4.215 -2.787 -3.467 -1.088 -14.412 1.428 -9.517 -0.068 -22.706 -3.399 -29.572 -2.787 -5.71 -14.888 -14.82 -23.25 -17.403 -2.311 -0.748 -7.002 -1.428 -10.809 -1.564l-6.73 -0.34 -3.875 -3.127c-4.215 -3.467 -14.82 -8.838 -22.162 -11.217 -4.419 -1.428 -4.623 -1.564 -6.39 -5.235 -1.224 -2.447 -2.787 -4.419 -4.351 -5.439 -4.963 -3.263 -19.579 -5.099 -28.688 -3.603zm25.697 3.331c1.971 0.884 3.331 2.243 5.031 5.031 2.923 4.963 3.875 7.75 4.759 14.276 1.088 7.682 0.884 11.761 -0.272 5.574 -0.476 -2.651 -1.292 -6.118 -1.768 -7.818l-0.952 -3.059 -0.204 5.235 -0.204 5.167 -3.195 -3.059c-1.768 -1.7 -3.195 -3.467 -3.195 -3.875 -0.136 -2.311 -1.156 -10.469 -1.496 -11.625 -0.476 -1.632 -5.099 -6.254 -7.138 -7.138 -1.156 -0.544 -0.612 -0.612 2.175 -0.34 2.039 0.272 4.963 0.952 6.458 1.632zm19.511 14.616c10.605 4.419 15.772 7.886 19.715 13.188 2.719 3.603 4.419 7.41 6.322 13.528 0.748 2.447 0.748 2.923 -0.068 2.923 -0.544 0 -0.952 -0.476 -0.952 -1.02 0 -1.02 -1.088 -1.36 -3.739 -1.156 -1.088 0.136 -1.156 0 -0.34 -0.544 0.544 -0.34 0.68 -0.68 0.272 -0.68 -0.476 0 -0.952 -0.476 -1.224 -1.02 -0.272 -0.748 0.272 -0.612 1.632 0.476 2.311 1.7 3.535 1.224 1.768 -0.748 -0.612 -0.68 -0.952 -1.428 -0.612 -1.564 0.272 -0.204 0.136 -0.204 -0.408 -0.068s-1.156 0 -1.36 -0.34c-0.612 -0.952 -9.449 -5.235 -13.528 -6.594 -4.147 -1.36 -4.419 -1.903 -0.476 -1.02 1.496 0.34 3.671 0.612 4.759 0.612 1.971 0 1.971 0 -0.68 -1.088 -1.496 -0.612 -2.855 -1.292 -3.059 -1.496 -1.224 -1.496 -4.963 -4.079 -5.439 -3.807 -0.272 0.204 -1.02 -0.408 -1.632 -1.36S289.669 52.346 288.922 52.346s-1.36 -0.204 -1.36 -0.544c0 -0.884 -3.263 -2.039 -3.943 -1.36 -0.408 0.408 -0.816 -0.34 -1.088 -1.971 -0.272 -1.428 -0.612 -3.399 -0.816 -4.487 -0.408 -2.107 -1.224 -2.243 8.702 1.836zM277.025 63.223c-0.204 3.739 -0.952 7.614 -2.039 10.877 -2.651 7.75 -2.923 8.158 -4.827 7.342 -1.292 -0.612 -1.428 -0.952 -0.884 -2.379 0.34 -0.884 0.544 -2.787 0.544 -4.147 -0.136 -2.311 -0.136 -2.379 -0.408 -0.476 -0.204 1.088 -0.612 2.311 -1.02 2.719 -0.476 0.476 -0.612 -0.068 -0.34 -1.7 0.204 -1.292 0.952 -7.206 1.632 -13.052l1.156 -10.673 3.263 2.855 3.263 2.855 -0.34 5.778zm-97.282 -5.982c-0.748 0.884 -1.836 2.447 -2.379 3.603 -1.7 3.127 -4.691 12.916 -4.691 15.296 0 1.088 -0.272 2.039 -0.68 2.039 -0.68 0 -0.748 -4.623 -0.068 -5.778 0.204 -0.408 0.408 -2.039 0.476 -3.671 0.136 -4.283 -0.884 -2.039 -1.836 4.011 -0.612 4.215 -0.544 6.118 0.408 12.033 0.68 3.807 1.428 6.798 1.768 6.662 0.272 -0.204 0.272 0.34 0.068 1.156 -0.34 1.496 -0.408 1.428 -1.224 -0.476 -2.719 -6.458 -2.855 -19.307 -0.34 -27.397 2.107 -6.866 3.943 -8.838 8.158 -8.906 1.632 -0.068 1.632 -0.068 0.34 1.428zm124.474 9.925c-0.204 0.204 -0.748 0 -1.224 -0.476 -0.612 -0.68 -0.544 -0.748 0.408 -0.34 0.68 0.204 1.02 0.612 0.816 0.816zm37.662 3.807c1.903 1.903 2.311 3.127 3.127 8.362 0.884 5.235 0.884 7.138 0.068 14.14 -0.544 4.487 -1.292 8.906 -1.7 9.857 -0.748 1.632 -0.748 1.632 -0.408 -0.34 1.7 -10.741 2.107 -22.57 0.68 -22.57 -0.816 0 -1.088 3.399 -1.02 11.489 0 3.671 -0.204 5.982 -0.68 5.982 -0.34 0 -0.68 0.816 -0.68 1.836 0 2.855 -0.748 5.031 -1.496 4.555 -0.408 -0.272 -0.476 0.136 -0.204 1.088 0.34 1.02 0.272 1.36 -0.272 1.088 -0.884 -0.544 -0.816 -5.167 0.136 -5.167 0.34 0 0.476 -0.408 0.272 -0.952s-0.476 -6.594 -0.544 -13.46 -0.34 -12.916 -0.612 -13.46 -0.68 -1.971 -0.884 -3.127c-0.34 -1.836 -0.204 -2.107 0.816 -1.836 0.68 0.204 2.243 1.292 3.399 2.515zm5.846 1.768c2.923 3.943 4.759 9.585 5.642 17.335 0.884 7.41 0.884 9.178 0.136 9.178 -0.408 0 -0.68 -1.632 -0.68 -3.603 0 -9.381 -2.515 -17.743 -7.274 -24.133 -0.884 -1.156 -1.36 -2.175 -0.952 -2.175 0.34 0 1.768 1.564 3.127 3.399zm-30.456 4.895c-0.204 0.544 -0.408 0.34 -0.408 -0.408 -0.068 -0.748 0.136 -1.156 0.34 -0.884 0.204 0.204 0.272 0.816 0.068 1.292zm-144.801 7.818c-0.204 0.68 -0.34 0.136 -0.34 -1.156s0.136 -1.836 0.34 -1.224c0.136 0.68 0.136 1.768 0 2.379zm146.16 -1.7c-0.204 0.544 -0.408 0.34 -0.408 -0.408 -0.068 -0.748 0.136 -1.156 0.34 -0.884 0.204 0.204 0.272 0.816 0.068 1.292zM269.887 83.617c1.224 0.68 1.224 0.816 0.272 3.263 -1.632 3.807 -2.379 4.283 -2.175 1.292 0.068 -1.428 0.408 -2.787 0.748 -2.991 0.272 -0.136 0.204 -0.748 -0.272 -1.292 -0.884 -1.088 -0.34 -1.224 1.428 -0.272zm12.713 2.175c-0.204 0.544 -0.408 0.34 -0.408 -0.408 -0.068 -0.748 0.136 -1.156 0.34 -0.884 0.204 0.204 0.272 0.816 0.068 1.292zm60.776 1.292c-0.34 0.884 -0.68 1.292 -0.68 0.816 -0.068 -1.02 0.68 -3.059 1.02 -2.719 0.204 0.136 0 1.02 -0.34 1.903zm-41.605 6.458c0.952 0.816 -1.292 0.068 -2.379 -0.816 -1.224 -0.952 -1.224 -0.952 0.408 -0.204 0.952 0.408 1.836 0.884 1.971 1.02zm6.05 5.439c2.311 1.292 4.215 2.583 4.215 2.855s1.156 1.7 2.583 3.195c2.787 2.991 1.632 2.311 -4.351 -2.515 -2.175 -1.768 -6.798 -4.487 -10.265 -6.05 -3.467 -1.632 -6.322 -3.127 -6.322 -3.399 0 -0.68 9.11 3.127 14.14 5.914zm-3.603 -3.263c-0.408 0.476 -2.311 -0.748 -1.971 -1.292 0.204 -0.34 0.748 -0.204 1.292 0.272 0.476 0.408 0.816 0.884 0.68 1.02zm11.217 5.642c0 0.408 -0.272 0.476 -0.68 0.272 -0.34 -0.204 -0.68 -0.748 -0.68 -1.088 0 -0.408 0.34 -0.476 0.68 -0.272 0.408 0.204 0.68 0.748 0.68 1.088zm-34.671 46.499c0.476 0.612 1.292 0.952 1.836 0.748s0.816 -0.136 0.612 0.136c-0.204 0.34 1.36 2.243 3.399 4.283 2.107 2.039 4.555 4.827 5.507 6.322 1.564 2.379 3.807 8.566 3.331 9.042 -0.136 0.136 -1.632 -2.243 -3.399 -5.235 -1.768 -3.059 -5.507 -7.954 -8.362 -10.945 -2.855 -2.923 -4.827 -5.371 -4.487 -5.371 0.408 0 1.088 0.476 1.564 1.02zm76.207 67.71c-0.408 1.36 -3.603 5.778 -7.274 10.197 -3.603 4.283 -8.158 9.789 -10.197 12.305 -2.175 2.651 -4.283 4.623 -4.963 4.623 -1.088 0 -1.292 0.884 -1.632 8.294 -0.408 10.537 -1.7 14.684 -7.002 22.638 -6.798 10.129 -8.158 14.956 -8.838 30.116l-0.476 10.469 -2.447 1.564c-1.36 0.816 -4.079 2.379 -6.118 3.399 -3.127 1.564 -3.603 1.632 -3.127 0.544 1.836 -4.283 3.739 -13.732 4.419 -21.754 0.952 -12.237 1.02 -12.373 8.974 -23.182 1.971 -2.651 4.079 -8.362 5.235 -14.14 0.884 -4.283 5.846 -17.267 10.061 -26.241 3.263 -7.002 4.555 -8.566 2.379 -2.855 -1.496 3.807 -2.447 8.362 -1.632 7.41 0.34 -0.408 1.156 -2.175 1.768 -3.943 0.952 -2.583 2.311 -4.215 6.458 -7.682 5.371 -4.555 7.478 -7.818 7.546 -11.557 0 -4.691 0.748 -6.39 3.467 -7.954 1.768 -0.952 2.651 -1.971 2.651 -2.923 0 -0.748 0.204 -1.632 0.544 -1.903 0.816 -0.816 0.952 9.857 0.204 12.577zm-208.499 -6.322c0.204 1.428 1.02 3.195 1.836 3.943 0.816 0.68 2.515 3.467 3.739 6.118s4.147 7.274 6.526 10.197c3.943 4.827 6.594 9.381 5.914 10.061 -0.136 0.204 -2.311 -2.651 -4.827 -6.254s-5.982 -8.498 -7.682 -10.877 -3.807 -5.71 -4.691 -7.546c-1.903 -3.671 -2.923 -8.226 -1.903 -8.226 0.34 0 0.816 1.156 1.088 2.583zm46.159 9.449c-1.224 0.136 -3.263 0.136 -4.419 0 -1.224 -0.136 -0.272 -0.272 2.175 -0.272s3.399 0.136 2.243 0.272zm5.031 0.612c-0.204 0.204 -0.816 0.272 -1.292 0.068 -0.544 -0.204 -0.34 -0.408 0.408 -0.408 0.748 -0.068 1.156 0.136 0.884 0.34zm2.923 0.952c0 0.34 -0.136 0.68 -0.272 0.68 -0.204 0 -0.544 -0.34 -0.748 -0.68 -0.204 -0.408 -0.068 -0.68 0.272 -0.68 0.408 0 0.748 0.272 0.748 0.68zm116.248 4.623c-2.583 9.313 -5.914 14.752 -10.197 16.655 -0.952 0.476 -7.546 0.952 -15.296 1.156 -12.101 0.34 -13.936 0.544 -16.791 1.836 -1.836 0.816 -3.263 1.292 -3.263 1.088 0 -1.088 3.671 -8.362 4.215 -8.362 0.34 0 0.408 0.408 0.136 0.816 -0.34 0.612 -0.204 0.612 0.612 -0.068 0.612 -0.476 1.02 -1.156 0.816 -1.428s0.136 -0.748 0.748 -0.952c0.68 -0.272 0.884 -0.068 0.612 0.476 -0.204 0.408 0.272 0 1.088 -0.952l1.428 -1.836 2.039 2.311c4.011 4.555 11.421 4.827 16.18 0.544 2.991 -2.719 3.943 -5.031 4.283 -10.469 0.204 -3.059 0.408 -3.671 1.36 -3.535 0.612 0.136 1.156 -0.068 1.156 -0.34s2.039 -0.612 4.555 -0.748 5.031 -0.476 5.642 -0.816c1.836 -1.02 1.971 -0.068 0.68 4.623zm-127.329 -2.175c0.68 0.068 3.127 0.34 5.507 0.612 3.807 0.476 4.215 0.34 4.283 -0.748 0.068 -0.748 0.476 1.156 0.952 4.147 0.884 5.031 1.156 5.642 3.807 7.954 5.71 5.167 12.713 4.827 17.403 -0.748 0.816 -0.952 1.496 -1.36 1.564 -0.952 0 0.476 0.476 0.884 1.02 0.884s1.02 0.34 1.02 0.748c0 0.34 0.272 0.544 0.612 0.34 0.34 -0.272 1.156 1.02 1.768 2.787 0.612 1.836 1.564 4.147 2.107 5.235s0.884 2.107 0.68 2.243c-0.136 0.136 -2.515 -0.204 -5.303 -0.748 -3.943 -0.816 -7.41 -0.952 -14.888 -0.612 -13.664 0.544 -14.956 -0.204 -19.511 -11.693 -2.719 -6.798 -4.283 -12.509 -2.923 -10.605 0.34 0.544 1.224 1.02 1.903 1.156zm23.454 9.993c2.107 0.136 2.991 0.476 3.127 1.292 0.612 3.127 -6.934 3.195 -10.197 0.068 -2.039 -1.971 -2.311 -2.923 -1.156 -4.079 0.612 -0.612 1.36 -0.408 3.059 0.884 1.496 1.156 3.195 1.768 5.167 1.836zm86.541 0.068c0 2.719 -3.399 4.759 -7.954 4.759 -4.011 0 -4.963 -0.816 -3.603 -2.787 0.816 -1.156 1.496 -1.428 3.331 -1.088 1.768 0.272 2.787 0 4.079 -0.952 0.952 -0.748 1.496 -1.632 1.224 -1.903s0.272 -0.34 1.224 -0.204c1.36 0.136 1.7 0.612 1.7 2.175zM173.897 235.896c0.816 0.748 1.768 2.651 2.175 4.283 0.408 1.564 1.36 4.691 2.107 6.866 0.952 2.923 1.292 5.982 1.292 10.945 0 7.41 1.428 19.511 3.127 27.193 3.127 13.528 7.954 30.116 10.605 36.506 1.7 4.079 1.224 6.05 -1.768 7.682l-2.379 1.292 -4.215 -2.175c-2.311 -1.224 -4.895 -2.175 -5.778 -2.175 -1.02 0 -2.107 -0.816 -3.195 -2.379l-1.632 -2.379 1.971 -6.662c3.943 -12.984 3.467 -20.938 -3.195 -55.881 -2.243 -11.557 -3.059 -24.473 -1.564 -24.473 0.544 0 1.632 0.612 2.447 1.36zm16.384 13.732c5.031 3.807 13.256 6.662 19.307 6.662 2.107 0 7.138 -0.68 11.149 -1.428 6.39 -1.292 8.838 -1.428 19.103 -1.088 9.245 0.34 12.305 0.204 14.548 -0.612 3.603 -1.224 13.596 -1.224 23.318 0.068 10.877 1.428 22.366 1.36 28.28 -0.272 5.235 -1.496 11.761 -4.351 13.8 -6.118 1.224 -1.02 1.292 -1.02 0.816 1.768 -0.748 4.963 -3.059 10.061 -6.662 14.888 -5.778 7.682 -10.537 11.761 -25.425 22.026 -0.816 0.544 -3.875 2.719 -6.798 4.759 -5.574 3.807 -17.267 10.537 -21.346 12.237 -1.292 0.544 -4.487 1.02 -7.138 1.02 -7.07 0 -8.566 -0.68 -36.234 -17.063 -23.182 -13.732 -29.164 -18.151 -32.359 -23.997 -1.496 -2.719 -7.138 -21.618 -7.206 -23.93 0 -0.272 1.903 1.428 4.283 3.739 2.311 2.243 6.186 5.574 8.566 7.342zm-78.995 -3.263c1.292 2.583 0.816 2.175 -1.564 -1.292 -0.952 -1.496 -1.292 -2.243 -0.68 -1.7 0.68 0.476 1.632 1.836 2.243 2.991zm2.923 5.235c0.816 1.564 1.292 2.923 1.088 3.127s-0.884 -0.816 -1.496 -2.243c-0.68 -1.496 -1.36 -2.855 -1.496 -3.195 -0.136 -0.272 -0.068 -0.476 0.136 -0.476s1.02 1.224 1.768 2.787zm3.399 6.934c0 1.088 -1.224 -0.204 -1.564 -1.7 -0.408 -1.496 -0.34 -1.496 0.544 -0.272 0.544 0.748 1.02 1.632 1.02 1.971zm2.719 7.546c0 0.408 -0.612 -0.612 -1.36 -2.243s-1.36 -3.263 -1.36 -3.739c0 -0.408 0.612 0.612 1.36 2.243s1.36 3.263 1.36 3.739zm35.894 -3.875c0.408 1.428 0.952 4.283 1.156 6.322s0.544 4.419 0.748 5.235c0.204 1.224 -0.272 1.768 -2.379 2.923 -1.496 0.748 -3.603 1.36 -4.691 1.36h-1.903l0.068 -7.546v-7.546l2.719 -1.632c1.496 -0.884 2.923 -1.632 3.127 -1.632s0.748 1.156 1.156 2.515zm201.565 1.156c2.107 2.651 2.243 3.467 0.884 4.011 -1.088 0.408 -6.118 -5.167 -5.371 -5.914 1.02 -0.952 2.719 -0.272 4.487 1.903zm-210.199 4.623c0.136 5.574 -0.204 8.294 -1.496 12.373 -1.836 6.118 -7.682 15.364 -9.653 15.364 -1.496 0 1.428 -15.16 4.011 -20.734 1.971 -4.283 5.642 -9.857 6.458 -9.857 0.34 0 0.612 1.292 0.68 2.855zm169.138 4.555c-1.428 3.399 -6.662 11.217 -5.71 8.566 0.272 -0.748 0.748 -2.583 1.088 -4.079 0.884 -3.807 2.651 -7.886 4.283 -9.721l1.428 -1.632 0.204 1.7c0.136 0.952 -0.476 3.263 -1.292 5.167zm46.159 -0.476c1.7 5.235 2.447 11.217 1.836 14.072l-0.476 2.175 -3.127 -2.787c-3.467 -2.991 -4.147 -3.603 -6.934 -6.73 -2.107 -2.311 -4.963 -2.787 -7.138 -1.156 -0.952 0.68 -1.7 0.748 -2.651 0.272 -1.428 -0.748 -13.392 -0.34 -17.879 0.68 -3.195 0.68 -3.195 0.884 0.068 -4.147 1.836 -2.787 2.379 -3.195 3.943 -2.923 8.906 1.632 19.851 0.816 25.901 -1.971 1.971 -0.884 3.875 -1.632 4.283 -1.632 0.408 -0.068 1.36 1.836 2.175 4.147zm-240.723 0.68c-0.204 0.544 -0.408 0.34 -0.408 -0.408 -0.068 -0.748 0.136 -1.156 0.34 -0.884 0.204 0.204 0.272 0.816 0.068 1.292zm2.039 7.478c-0.204 0.544 -0.408 0.34 -0.408 -0.408 -0.068 -0.748 0.136 -1.156 0.34 -0.884 0.204 0.204 0.272 0.816 0.068 1.292zm-6.322 3.535c7.002 3.603 8.566 5.507 8.566 10.537 0 7.886 -4.147 25.289 -8.498 35.69l-1.088 2.583 -1.836 -3.535c-3.807 -7.41 -10.469 -12.577 -17.947 -13.936 -1.428 -0.272 -2.583 -0.612 -2.583 -0.68 0 -0.136 0.612 -2.787 1.36 -5.914 1.7 -6.934 2.379 -17.131 1.496 -22.774 -0.408 -2.923 -0.34 -4.351 0.136 -4.555 0.408 -0.204 4.011 -0.272 7.954 -0.204 6.934 0.136 7.478 0.272 12.441 2.787zm218.765 -0.068c0.816 0.612 1.156 2.175 1.36 5.71 0.136 2.855 -0.068 4.691 -0.408 4.419 -0.34 -0.204 -0.476 0.136 -0.204 0.748 0.272 0.748 0.136 0.952 -0.544 0.68 -0.544 -0.204 -0.816 -0.612 -0.612 -1.02 0.204 -0.34 0 -0.544 -0.476 -0.476 -1.564 0.272 -4.691 -0.816 -4.691 -1.632 0 -0.408 -0.204 -0.476 -0.408 -0.272 -0.272 0.204 -1.02 0.136 -1.7 -0.272 -1.632 -0.816 -1.156 -3.399 1.224 -6.594 1.768 -2.379 4.351 -2.855 6.458 -1.292zm4.351 9.245c0.204 2.583 0 4.895 -0.272 5.099 -0.748 0.408 -9.245 -2.311 -8.702 -2.787 0.136 -0.204 1.496 0.068 2.923 0.544s2.787 0.884 3.059 0.952c0.204 0 0.68 0.204 0.952 0.476 1.156 1.224 1.428 0.272 1.224 -4.623 -0.204 -6.39 0.476 -6.186 0.816 0.34zM278.249 300.478c-0.68 0.612 -9.789 2.855 -10.197 2.515 -0.136 -0.204 2.107 -1.7 5.031 -3.399l5.303 -3.127 0.204 1.7c0.136 1.02 0 2.039 -0.34 2.311zm87.832 -2.039c-0.136 0.748 -0.544 1.903 -0.952 2.515 -0.612 1.088 -0.68 1.088 -0.748 0.068 0 -0.612 0.272 -1.292 0.68 -1.564 0.34 -0.204 0.476 -0.816 0.204 -1.36 -0.204 -0.544 0 -1.02 0.34 -1.02 0.408 0 0.612 0.612 0.476 1.36zm-12.033 1.088c0.952 0.272 1.428 0.816 1.224 1.36 -0.204 0.476 0 1.02 0.476 1.224 0.476 0.136 -0.204 0.204 -1.428 0.068 -2.515 -0.204 -3.943 -1.224 -3.263 -2.311 0.544 -0.884 0.816 -0.884 2.991 -0.34zm-75.595 12.849c0.136 5.642 0.408 11.489 0.612 13.052 0.272 2.583 0.136 3.059 -1.564 4.079 -2.651 1.632 -9.653 8.498 -9.653 9.517 0 0.408 -0.612 1.02 -1.36 1.224 -0.748 0.272 -2.311 1.224 -3.399 2.175 -2.447 1.971 -2.243 2.855 -2.379 -10.673 -0.136 -7.342 -0.476 -11.557 -1.224 -13.936l-1.088 -3.399 0.476 4.079c0.816 6.934 0.476 15.364 -0.748 19.103 -1.7 4.963 -6.118 8.77 -10.673 9.245l-2.379 0.204 -0.408 -3.399c-0.748 -6.73 -4.079 -30.728 -4.963 -35.894 -0.816 -4.827 -0.748 -5.235 0.272 -5.235 1.903 0 8.566 2.515 13.052 4.895 4.759 2.515 6.934 2.583 9.449 0.136 1.156 -1.156 3.807 -2.243 7.682 -3.331 3.263 -0.816 6.118 -1.768 6.322 -1.971 1.292 -1.292 1.7 0.884 1.971 10.129zm62.815 -9.721c-1.7 0.34 -4.283 1.088 -5.778 1.632 -3.535 1.224 -4.419 1.224 -2.651 0 1.903 -1.36 5.574 -2.311 8.77 -2.311h2.719l-3.059 0.68zm12.101 4.963c1.971 1.428 5.099 6.866 4.487 7.886 -0.272 0.476 -0.204 0.612 0.204 0.408 0.816 -0.544 1.971 2.175 2.515 5.778 0.408 3.059 0.068 3.263 -1.224 0.68 -0.544 -1.02 -2.651 -3.467 -4.691 -5.507 -2.107 -2.039 -3.603 -4.079 -3.399 -4.623 0.204 -0.476 -0.136 -0.884 -0.748 -0.884s-1.088 -0.408 -1.088 -0.884c0 -0.544 -0.272 -0.476 -0.68 0.204 -0.612 0.884 -0.68 0.884 -0.68 0 0 -0.816 -0.136 -0.884 -0.612 -0.068 -0.34 0.476 -0.884 0.748 -1.292 0.476 -0.34 -0.204 -1.428 0.204 -2.311 0.952 -0.952 0.748 -1.903 1.088 -2.175 0.816 -0.272 -0.204 -0.272 0.136 0 0.816 0.408 1.02 0.272 1.156 -1.088 0.748 -1.02 -0.34 -1.36 -0.272 -1.088 0.272 0.272 0.408 0 0.748 -0.544 0.748 -0.612 0 -1.088 0.272 -1.088 0.612 0 0.884 -2.583 1.564 -6.458 1.7 -3.603 0.136 -11.421 2.991 -10.809 3.943 0.204 0.272 -0.068 0.408 -0.544 0.204s-2.039 0.748 -3.399 2.107c-1.428 1.292 -2.583 2.107 -2.583 1.768 0 -0.816 4.555 -4.759 6.866 -5.914 1.02 -0.544 4.555 -1.768 7.886 -2.719 7.138 -2.107 11.625 -4.215 16.18 -7.818 3.671 -2.923 5.914 -3.331 8.362 -1.7zm14.344 15.636c0 3.467 -0.952 1.496 -1.496 -3.399 -0.408 -3.331 -0.408 -3.331 0.544 -1.36 0.544 1.088 0.952 3.263 0.952 4.759zm-22.706 -0.68c-2.651 2.175 -3.671 2.175 -1.224 0 1.02 -0.884 2.243 -1.632 2.583 -1.7 0.408 0 -0.204 0.748 -1.36 1.7zm-4.623 2.447c-1.7 1.02 -8.634 1.903 -9.042 1.156 -0.204 -0.272 1.088 -0.544 2.923 -0.612 1.768 0 3.875 -0.272 4.623 -0.612 1.971 -0.816 2.923 -0.748 1.496 0.068zm23.794 2.787c-0.204 0.476 -0.34 0.136 -0.34 -0.816s0.136 -1.292 0.34 -0.884c0.136 0.476 0.136 1.292 0 1.7zM326.311 326.991c-2.039 0.34 -4.759 0.884 -6.05 1.292 -1.224 0.408 -2.107 0.476 -1.836 0.204 1.088 -1.088 5.031 -2.039 8.226 -2.039l3.399 0.068 -3.739 0.476zm-15.636 1.632c0 0.136 -0.544 0.68 -1.156 1.156 -1.088 0.884 -1.156 0.816 -0.272 -0.272s1.428 -1.428 1.428 -0.884zm-29.912 1.36c0 0.136 -1.292 1.088 -2.855 2.107 -1.632 1.088 -4.079 3.195 -5.439 4.691 -1.36 1.564 -2.719 2.583 -2.991 2.243 -0.612 -0.612 4.623 -6.186 7.546 -8.022 1.836 -1.156 3.739 -1.7 3.739 -1.02zm-86.609 2.583c0.204 0.748 0.816 5.914 1.224 11.353 0.612 7.546 1.156 10.537 2.107 12.169 1.971 3.331 24.473 23.182 31.136 27.533 2.039 1.36 2.447 4.147 1.088 8.838 -0.816 2.991 -2.447 3.875 -7.07 3.875s-6.458 0.952 -6.458 3.331c0 5.099 -4.147 9.178 -11.489 11.353 -2.039 0.612 -5.439 1.971 -7.546 2.991 -2.787 1.496 -5.371 2.107 -10.469 2.719 -3.739 0.408 -7.41 0.884 -8.158 1.088 -1.428 0.34 -1.428 0.136 -1.428 -10.741 0 -9.449 0.204 -11.353 1.224 -12.781 1.632 -2.379 1.496 -3.195 -1.292 -6.594 -1.632 -1.971 -2.107 -2.991 -1.496 -3.195 0.476 -0.204 1.971 -0.612 3.331 -1.088 1.7 -0.476 2.855 -1.428 3.671 -2.991 1.224 -2.311 1.224 -5.167 -0.068 -17.403 -0.476 -4.283 0.612 -7.75 6.458 -21.074 1.903 -4.283 3.467 -8.498 3.467 -9.381 0 -1.903 1.156 -1.971 1.768 0zm109.722 1.292c-1.836 1.02 -1.971 1.224 -0.68 0.884 1.156 -0.272 1.496 -0.204 1.02 0.272 -0.34 0.408 -4.487 1.768 -9.11 3.127 -10.469 2.991 -14.48 5.235 -18.219 10.061l-1.428 1.903 -1.156 -1.836c-1.088 -1.632 -1.088 -2.039 -0.272 -3.535 1.632 -2.923 6.254 -5.507 11.965 -6.594 9.449 -1.903 9.993 -2.107 14.14 -3.807 4.895 -2.107 7.07 -2.379 3.739 -0.476zm-130.253 6.186c-1.224 1.36 -1.224 1.428 -0.068 1.02 1.632 -0.612 0.816 0.68 -1.088 1.7 -1.36 0.68 -1.428 0.68 -0.544 -0.34 0.68 -0.884 0.68 -1.156 0.068 -1.156 -0.476 0 -0.136 -0.612 0.748 -1.36 2.175 -1.768 2.515 -1.7 0.884 0.136zm6.322 1.02c0.816 2.787 0.408 10.945 -0.748 14.82 -2.719 9.449 -4.419 14.14 -4.419 12.441 -0.068 -1.02 0.272 -2.651 0.612 -3.671 0.612 -1.564 0.612 -1.7 -0.272 -1.02 -1.292 1.088 -1.564 0.544 -2.107 -5.439 -0.34 -3.603 -0.272 -5.371 0.272 -5.642 0.408 -0.272 0.748 -1.971 0.68 -3.739 -0.136 -2.651 0.204 -3.739 1.768 -5.778 1.02 -1.292 2.107 -2.243 2.447 -2.039s0.408 -0.136 0.204 -0.68c-0.204 -0.612 -0.068 -1.088 0.34 -1.088s0.952 0.816 1.224 1.836zm85.657 2.379c-1.971 1.836 -2.719 3.263 -3.875 7.682 -0.816 2.991 -2.651 7.41 -4.079 9.857 -1.36 2.447 -3.195 5.71 -4.011 7.342s-2.515 4.079 -3.739 5.439c-2.855 3.195 -3.399 4.827 -3.195 10.469 0.068 3.671 -0.136 4.623 -0.952 4.623 -0.544 0 -1.428 -0.68 -2.039 -1.564 -1.7 -2.651 0.068 -6.866 8.294 -19.375 5.778 -8.77 7.138 -11.557 8.77 -18.015 1.156 -4.759 3.943 -8.634 6.186 -8.634 0.748 0 0.272 0.748 -1.36 2.175zM257.65 354.592c-0.68 1.632 -4.419 8.362 -9.381 16.588 -0.816 1.292 -2.107 3.535 -2.855 4.963 -0.816 1.496 -1.564 2.515 -1.7 2.379 -0.136 -0.068 0.204 -2.651 0.748 -5.642 0.748 -3.807 0.884 -7.478 0.612 -12.169 -0.408 -6.322 -0.408 -6.662 0.816 -6.254 3.059 1.224 5.371 1.088 8.702 -0.544 1.836 -0.884 3.467 -1.564 3.603 -1.496 0.068 0.136 -0.136 1.088 -0.544 2.175zm-167.778 11.897c4.351 0.952 11.421 4.011 12.713 5.574 0.68 0.816 0.884 3.127 0.816 8.43 -0.136 7.886 0.748 12.169 3.739 18.015l1.632 3.263h-3.399c-7.75 0 -17.811 3.535 -22.502 7.886l-1.768 1.7 -1.088 -5.982c-0.612 -3.263 -1.224 -7.07 -1.428 -8.362 -0.544 -3.807 -0.612 -16.723 0 -24.337l0.476 -6.934h3.603c1.971 0 5.235 0.34 7.206 0.748zM280.764 376.278c0 0.816 0.34 1.768 0.68 2.107 0.544 0.544 0.476 2.243 -0.068 5.507 -0.748 4.759 -0.816 4.827 -3.399 5.642 -2.719 0.952 -8.43 0.612 -9.585 -0.544 -1.224 -1.224 1.02 -4.419 4.963 -7.07 2.991 -2.039 4.079 -3.195 5.031 -5.71 1.224 -3.195 2.311 -3.127 2.379 0.068zm68.865 -1.156c-0.272 1.292 -0.816 1.496 -3.535 1.496 -3.399 0 -7.75 1.088 -13.528 3.263 -6.254 2.379 -10.673 3.059 -17.063 2.447l-5.846 -0.544 8.566 -0.476c7.886 -0.408 8.974 -0.612 14.616 -3.059 4.759 -2.039 7.138 -2.651 11.013 -2.855 3.535 -0.204 5.099 -0.612 5.371 -1.292 0.544 -1.428 0.884 -0.68 0.408 1.02zM152.959 381.037c0 1.7 -1.156 2.379 -4.011 2.379 -4.147 0 -5.235 -0.68 -4.147 -2.651 0.476 -0.952 0.612 -2.583 0.34 -4.351l-0.476 -2.787 4.147 3.603c2.243 1.971 4.147 3.671 4.147 3.807zm137.255 7.206c0.408 2.039 0.748 13.256 0.816 25.425 0.136 23.114 0.136 23.318 -3.875 41.605 -1.088 4.827 -1.156 4.963 -4.011 6.254 -2.515 1.088 -3.399 2.107 -5.982 6.662 -1.7 2.923 -3.671 6.05 -4.419 7.002 -0.68 0.952 -1.836 3.399 -2.515 5.439 -2.175 6.662 -6.458 14.276 -6.458 11.489 0 -0.476 0.612 -3.195 1.428 -6.118 1.564 -5.846 1.156 -9.042 -1.564 -12.509 -3.195 -4.079 -7.886 -4.555 -20.259 -2.311 -5.846 1.088 -8.09 1.224 -8.974 0.68 -1.564 -0.952 -11.897 -0.952 -14.888 0 -3.195 0.952 -6.05 2.583 -8.09 4.419l-1.7 1.496 -9.178 -3.671c-16.927 -6.798 -23.454 -10.401 -30.116 -16.655 -3.263 -3.059 -7.07 -7.274 -8.43 -9.381 -2.651 -4.079 -7.002 -11.557 -7.002 -12.033 0 -1.224 8.498 1.564 15.364 5.031 5.167 2.583 9.925 6.322 17.131 13.324 5.507 5.439 17.947 13.936 24.473 16.791 3.331 1.496 3.807 1.564 3.195 0.68 -0.204 -0.34 1.428 -0.816 3.535 -1.088 7.478 -0.748 12.101 -1.836 18.151 -4.147 3.399 -1.292 6.458 -2.651 6.866 -2.991 0.476 -0.408 2.515 -0.272 5.507 0.34 2.583 0.476 6.594 1.156 8.906 1.428 3.603 0.408 4.487 0.272 6.186 -1.02 1.156 -0.748 2.651 -1.428 3.331 -1.428 0.748 0 2.923 -0.476 4.895 -1.088 3.263 -0.952 3.739 -0.952 4.759 0 1.564 1.428 2.583 1.36 3.059 -0.136 1.496 -4.691 2.583 -16.452 2.787 -30.048 0.408 -26.989 1.36 -41.605 3.127 -48.539l0.748 -2.651 1.224 2.039c0.68 1.156 1.564 3.671 1.971 5.71zm56.153 1.088c-1.564 14.888 -5.914 23.59 -20.462 40.721 -6.662 7.886 -14.14 20.394 -17.947 29.98 -0.476 1.224 -1.088 2.243 -1.428 2.243 -0.476 0 -3.807 -1.292 -4.555 -1.768 -0.136 -0.068 0.272 -1.292 0.884 -2.719 1.36 -3.263 6.73 -20.802 10.537 -34.603 1.564 -5.642 3.467 -12.373 4.147 -14.956 0.748 -2.651 2.651 -7.206 4.215 -10.197 3.331 -6.322 4.011 -6.798 14.412 -9.517 3.739 -0.952 7.41 -2.175 8.158 -2.719 2.311 -1.632 2.583 -1.156 2.039 3.535zm-103.196 -0.34c0.68 1.088 2.923 8.226 2.651 8.498 -0.068 0.068 -1.292 -0.952 -2.651 -2.379 -2.175 -2.243 -2.447 -2.923 -2.107 -4.759 0.476 -2.311 1.156 -2.719 2.107 -1.36zm-3.195 1.632c-0.408 1.02 -0.408 2.175 -0.068 2.855 1.02 1.903 8.702 8.974 9.789 8.974 0.544 0 1.768 0.612 2.719 1.36s2.719 1.36 4.147 1.36c2.243 0 2.379 0.136 2.787 2.515 0.748 4.419 1.088 4.827 2.107 2.583 0.476 -1.156 0.884 -2.719 0.952 -3.603 0 -1.428 0.272 -1.496 5.846 -1.496h5.778l1.428 -3.263c1.36 -2.991 1.496 -3.127 1.971 -1.496 1.768 6.186 -0.408 12.713 -4.963 15.024 -3.127 1.632 -12.101 2.923 -16.18 2.379 -3.467 -0.476 -8.158 -2.787 -12.645 -6.186 -3.059 -2.311 -5.914 -3.059 -6.73 -1.7 -0.204 0.34 -0.136 0.68 0.204 0.68s2.651 1.971 5.031 4.419c2.447 2.447 5.031 4.419 5.71 4.419s3.603 0.748 6.39 1.632c4.351 1.428 5.099 1.836 4.895 3.059 -0.136 0.816 0.068 1.428 0.476 1.428 0.34 0 0.748 -0.816 0.884 -1.903l0.204 -1.836 6.934 -0.068 6.866 -0.136 0.476 5.574c0.272 2.991 0.34 9.11 0.204 13.596l-0.204 8.022 -2.243 1.903c-1.292 1.02 -4.283 2.923 -6.798 4.147 -3.807 1.971 -5.303 2.311 -9.925 2.515 -8.226 0.34 -10.333 -0.952 -16.316 -9.993 -5.371 -8.09 -15.5 -18.695 -21.958 -23.114 -5.031 -3.331 -14.888 -8.226 -16.723 -8.226 -2.651 0 -0.544 -1.768 4.215 -3.467 7.954 -2.991 11.081 -6.05 12.033 -12.033l0.408 -2.719 4.691 -0.272c3.535 -0.136 4.623 0 4.351 0.612 -0.612 1.7 0.884 0.884 3.263 -1.768 1.292 -1.428 2.787 -3.739 3.263 -5.099 0.816 -2.379 1.02 -2.447 4.147 -2.447 3.195 0 3.195 0 2.583 1.768zm7.954 -0.136c0.34 0.272 3.603 9.585 3.603 10.401s-0.272 0.816 -1.768 0c-1.292 -0.68 -2.175 -2.175 -3.331 -5.642 -0.884 -2.583 -1.632 -4.963 -1.7 -5.235 0 -0.408 2.515 -0.068 3.195 0.476zm4.691 0.952c0.34 0.272 1.088 1.564 1.632 2.855 0.476 1.292 1.292 2.855 1.7 3.399 0.952 1.088 3.059 5.167 3.059 5.778 0 0.748 -4.623 0.34 -5.235 -0.544 -0.544 -0.68 -3.603 -10.537 -3.603 -11.625 0 -0.544 1.564 -0.476 2.447 0.136zm64.582 3.875c-1.36 2.855 -2.515 4.419 -3.263 4.419 -0.68 0 -1.224 -0.204 -1.224 -0.476 0 -0.816 3.671 -6.662 4.691 -7.478 1.971 -1.564 1.971 -0.884 -0.204 3.535zm-54.113 -1.496c0 1.768 0.544 2.787 2.311 4.419 2.039 1.836 2.447 1.971 3.195 1.088 0.476 -0.612 1.564 -0.952 2.447 -0.748 1.156 0.204 1.564 0 1.428 -0.816 -0.136 -0.748 0.408 -1.156 1.632 -1.292 1.768 -0.204 1.836 -0.204 1.088 2.379 -1.428 5.303 -2.379 5.778 -10.265 5.031l-4.623 -0.408 -2.243 -5.574 -2.311 -5.574 2.515 -0.272c1.36 -0.136 2.991 -0.272 3.671 -0.34 0.884 -0.136 1.156 0.408 1.156 2.107zm7.138 2.515c0.204 0.34 -0.068 0.68 -0.612 0.68 -0.612 0 -1.088 -0.34 -1.088 -0.68 0 -0.408 0.272 -0.68 0.612 -0.68 0.408 0 0.884 0.272 1.088 0.68zm-100.069 2.855c-2.719 3.059 -3.059 4.419 -2.787 12.849 0.136 6.662 0 8.226 -0.816 8.77 -1.632 1.02 -2.515 0.748 -1.088 -0.34 0.748 -0.544 0.952 -1.02 0.544 -1.02 -0.544 0 -0.816 -1.224 -0.816 -3.263 0 -1.836 -0.612 -5.574 -1.292 -8.362 -0.748 -2.787 -1.428 -5.507 -1.564 -6.05 -0.068 -0.544 -0.952 -1.224 -1.903 -1.428 -1.156 -0.34 -0.544 -0.476 2.039 -0.544 2.039 -0.068 4.827 -0.544 6.118 -1.02 1.292 -0.544 2.515 -0.952 2.651 -1.02 0.204 0 -0.34 0.612 -1.088 1.428zm143.713 3.059c-0.204 0.34 -1.02 2.787 -1.768 5.439 -0.952 3.263 -1.836 4.963 -2.447 4.963 -0.544 0 -1.02 -0.068 -1.02 -0.204 0 -0.952 2.311 -7.818 2.855 -8.43 0.34 -0.476 0.476 -1.156 0.204 -1.564 -0.204 -0.408 0.204 -0.68 1.02 -0.68s1.292 0.204 1.156 0.476zm-3.467 13.936c-1.632 7.614 -4.079 16.588 -4.691 16.995 -2.379 1.496 -2.379 -2.515 -0.068 -11.013 2.107 -7.614 2.039 -7.478 3.739 -7.478 1.02 0 1.224 0.34 1.02 1.496zm39.973 2.855c-1.224 3.603 -2.039 3.943 -0.884 0.34 0.408 -1.292 0.884 -2.719 1.02 -3.263 0.204 -0.544 0.476 -0.816 0.612 -0.612 0.204 0.136 -0.136 1.768 -0.748 3.535zm-173.149 1.496c-0.204 0.204 -0.816 0.272 -1.292 0.068 -0.544 -0.204 -0.34 -0.408 0.408 -0.408 0.748 -0.068 1.156 0.136 0.884 0.34zm-6.866 2.651c-2.583 1.292 -5.167 2.787 -5.846 3.399 -0.612 0.544 -1.836 1.02 -2.651 1.02s-1.36 0.272 -1.156 0.544c0.204 0.34 -1.36 1.428 -3.467 2.447 -3.467 1.836 -3.943 1.903 -6.39 1.088 -1.428 -0.476 -2.651 -1.088 -2.651 -1.292 0 -0.748 23.726 -9.517 25.833 -9.585 0.544 0 -1.088 1.088 -3.671 2.379zm177.364 2.311c-1.428 2.923 -1.971 2.651 -0.544 -0.272 0.612 -1.292 1.224 -2.243 1.428 -2.107 0.136 0.136 -0.272 1.224 -0.884 2.379zM147.52 432.567l3.059 0.884 0.068 8.77c0.068 8.498 -1.36 21.482 -1.768 15.976 -0.068 -1.292 -0.136 -2.515 -0.136 -2.719s-0.272 -2.651 -0.612 -5.439 -0.748 -6.594 -0.952 -8.43c-0.272 -2.855 -0.748 -3.671 -3.195 -5.778 -3.467 -2.991 -6.39 -4.351 -8.226 -3.739 -0.952 0.272 -1.156 0.204 -0.816 -0.408 0.612 -1.02 7.818 -0.544 12.577 0.884zm-19.375 2.107c-1.7 2.175 -1.836 2.243 -8.022 2.651 -7.002 0.476 -8.634 0.748 -10.605 1.768 -2.039 1.156 -3.127 0.952 -2.107 -0.272 2.651 -3.195 11.965 -6.254 19.239 -6.39l3.263 -0.068 -1.768 2.311zm84.365 4.011c-0.68 1.292 -1.836 2.651 -2.651 3.059 -3.739 1.836 -7.818 3.399 -9.993 3.807 -2.175 0.476 -2.107 0.34 1.02 -1.156 5.235 -2.651 10.129 -6.118 10.877 -7.75 0.34 -0.884 0.884 -1.292 1.224 -0.952s0.136 1.632 -0.476 2.991zm92.251 -3.195c0.884 0.272 0.816 1.02 -0.34 4.895 -2.311 7.818 -3.943 7.682 -2.583 -0.204 0.884 -5.099 1.088 -5.439 2.923 -4.691zm-181.851 7.41c-0.068 0.068 -1.292 0 -2.583 -0.204 -1.971 -0.272 -2.107 -0.408 -1.02 -0.816 1.156 -0.408 4.283 0.408 3.603 1.02zm179.471 6.934c-0.34 1.428 -1.088 3.059 -1.632 3.603 -0.816 0.816 -0.952 0.748 -1.02 -0.68 -0.204 -3.943 0.34 -5.439 2.039 -5.439 1.224 0 1.224 0.272 0.612 2.515zM159.757 461.799c0 0.476 -0.408 1.428 -0.816 2.039 -0.816 1.02 -1.156 0.952 -4.079 -0.476 -1.768 -0.884 -3.059 -1.768 -2.787 -2.039 0.204 -0.204 2.039 -0.408 4.079 -0.408 2.515 0 3.603 0.272 3.603 0.884zm4.147 1.02c0.612 0.068 2.787 0.816 4.895 1.7l3.739 1.496 -1.224 1.564c-1.564 1.903 -1.903 1.903 -1.496 -0.204 0.272 -1.428 0.068 -1.632 -0.884 -1.224 -0.884 0.272 -1.088 0.204 -0.748 -0.34 0.612 -1.02 -0.272 -1.02 -2.719 -0.136 -1.36 0.544 -2.039 0.544 -2.583 -0.068s-0.544 -0.68 0.068 -0.34c0.476 0.272 1.428 0.204 2.039 -0.204 1.02 -0.544 0.952 -0.68 -0.748 -1.156 -1.292 -0.34 -2.107 -0.136 -2.515 0.476 -0.476 0.748 -0.612 0.612 -0.612 -0.476 0 -1.564 0.748 -2.583 1.292 -1.836 0.204 0.34 0.884 0.612 1.496 0.748zm143.237 2.991c0.884 0.884 1.02 7.546 0.272 9.517 -0.34 0.748 -0.816 0.952 -1.428 0.612 -0.68 -0.408 -0.816 -1.768 -0.544 -5.371 0.272 -3.399 0.136 -4.895 -0.408 -5.167 -0.476 -0.136 -0.408 -0.34 0.272 -0.34 0.544 -0.068 1.36 0.272 1.836 0.748zm-124.134 4.759c3.535 1.903 3.807 2.175 3.127 3.535 -0.408 0.748 -0.816 1.496 -0.884 1.632 -0.408 0.476 -13.256 -4.351 -13.256 -5.031 0 -0.204 0.476 -1.224 1.02 -2.311 1.02 -1.971 1.02 -1.971 3.535 -0.952 1.428 0.612 4.351 2.039 6.458 3.127zm-77.839 1.36c0.884 1.088 3.127 8.702 2.719 9.11 -0.884 0.884 -4.487 -3.399 -5.167 -6.118 -1.088 -4.487 -1.02 -5.371 0.476 -4.555 0.68 0.34 1.564 1.088 1.971 1.564zm155.27 0.272c2.447 1.224 4.623 5.574 4.691 9.178 0 1.36 -0.612 4.215 -1.36 6.458 -0.748 2.175 -1.36 5.099 -1.292 6.39 0.136 1.768 -0.748 3.807 -3.331 8.158 -1.903 3.195 -3.943 6.458 -4.555 7.274 -2.039 2.991 -8.226 1.496 -12.373 -2.855 -0.884 -0.884 -2.107 -1.903 -2.719 -2.311 -1.088 -0.544 -1.02 -0.884 0.612 -3.943 1.02 -1.768 2.175 -5.371 2.583 -7.954 1.088 -5.846 0.612 -15.024 -0.816 -17.743l-1.088 -2.039 3.467 -0.748c5.439 -1.224 13.8 -1.156 16.18 0.136zm-67.438 2.447c2.107 1.156 3.875 2.175 4.011 2.311 0.136 0.068 -0.068 0.816 -0.476 1.564 -0.612 1.088 -1.088 1.292 -1.971 0.816 -0.612 -0.34 -2.515 -1.156 -4.215 -1.836s-3.127 -1.292 -3.263 -1.36c-0.272 -0.136 1.36 -3.671 1.768 -3.671 0.136 0 2.039 0.952 4.147 2.175zm39.021 -1.428c-0.408 0.408 -3.399 0.884 -6.662 1.088 -3.263 0.136 -6.662 0.612 -7.546 0.952 -1.02 0.34 -1.632 0.34 -1.632 -0.068 0 -1.156 6.118 -2.447 12.577 -2.651 2.855 -0.068 3.807 0.136 3.263 0.68zm-31.136 7.206c1.971 2.175 1.292 2.787 -1.7 1.428 -1.971 -0.816 -2.515 -1.836 -1.564 -2.787 0.748 -0.816 1.496 -0.544 3.263 1.36zM308.636 496.605c0 1.632 -0.544 2.923 -1.836 4.283 -1.088 1.02 -1.564 1.428 -1.156 0.884 1.156 -1.768 2.311 -4.827 2.311 -6.186 0 -0.748 0.136 -1.36 0.34 -1.36s0.34 1.088 0.34 2.379zm-42.624 2.855c0.816 1.02 2.583 3.535 3.943 5.71 2.923 4.487 7.41 7.138 13.596 7.818 4.487 0.544 13.392 -1.156 16.588 -3.127 2.243 -1.36 7.614 -6.934 8.906 -9.178 1.088 -1.971 7.886 12.169 7.954 16.588 0.068 4.215 -1.768 7.206 -5.235 8.566 -2.447 1.02 -3.399 1.02 -11.489 0 -4.827 -0.612 -9.789 -1.564 -11.081 -2.107 -1.224 -0.544 -3.195 -0.952 -4.351 -0.952 -3.467 0 -6.594 -1.768 -8.43 -4.691 -2.787 -4.351 -7.614 -6.118 -13.052 -4.759 -4.283 1.088 -3.671 1.768 1.292 1.428 3.399 -0.204 4.827 0.068 7.274 1.36 3.059 1.564 3.059 1.564 3.263 5.574 0.136 2.175 -0.068 4.283 -0.408 4.623 -0.272 0.272 -3.195 0.068 -6.662 -0.476 -5.099 -0.952 -6.39 -1.428 -8.294 -3.263 -5.303 -5.031 -5.235 -8.362 0.34 -18.355 2.039 -3.603 3.875 -6.594 4.079 -6.594s1.02 0.816 1.768 1.836z"/><path d="M304.557 63.291c0.544 0.34 1.971 1.156 3.059 1.7l2.039 1.088 -2.039 -1.768c-1.088 -0.952 -2.515 -1.7 -3.059 -1.7 -0.884 -0.068 -0.884 0 0 0.68zM271.382 61.863c0 0.952 0.136 1.292 0.34 0.816 0.136 -0.408 0.136 -1.224 0 -1.7 -0.204 -0.408 -0.34 -0.068 -0.34 0.884zm-0.408 3.875c-0.204 0.68 -0.476 2.447 -0.68 3.943 -0.272 2.107 -0.136 1.836 0.612 -1.02 0.544 -2.039 0.816 -3.807 0.68 -3.943s-0.408 0.34 -0.612 1.02zm-97.893 -4.215c-0.612 1.632 -0.476 3.059 0.272 3.059 0.34 0 0.408 -0.476 0.204 -1.156 -0.272 -0.748 -0.204 -0.952 0.34 -0.612 0.952 0.544 1.02 -0.204 0.204 -1.496 -0.476 -0.748 -0.68 -0.68 -1.02 0.204zm169.07 12.169c0.204 0.544 -0.068 1.156 -0.612 1.292 -0.68 0.272 -0.612 0.34 0.136 0.204 1.224 -0.068 1.971 -2.447 0.816 -2.447 -0.408 0 -0.544 0.408 -0.34 0.952zm1.292 4.487c0 0.952 0.136 1.292 0.34 0.816 0.136 -0.408 0.136 -1.224 0 -1.7 -0.204 -0.408 -0.34 -0.068 -0.34 0.884zM256.562 260.029c0.204 0.884 0.136 2.923 -0.204 4.419s-0.34 2.719 0 2.719c1.292 0 6.73 -3.059 6.73 -3.807 0 -1.088 -4.555 -5.031 -5.846 -5.031 -0.816 0 -1.02 0.408 -0.68 1.7zm-15.024 19.851c-1.971 0.612 -3.603 1.292 -3.603 1.632 0 0.816 0.544 0.748 3.739 -0.408 1.496 -0.544 3.875 -0.952 5.303 -1.02 1.36 0 2.515 -0.34 2.515 -0.68 0 -0.952 -3.807 -0.748 -7.954 0.476zm15.432 -0.476c0 0.34 1.224 0.748 2.651 1.02 1.496 0.272 3.059 0.884 3.535 1.428 0.884 1.088 3.331 1.292 3.331 0.272 0 -0.34 -0.544 -0.952 -1.224 -1.292 -1.7 -0.884 -8.294 -2.039 -8.294 -1.428zm3.399 5.099c-0.68 0.816 -0.544 1.088 0.748 1.632 1.836 0.68 3.807 -0.612 3.059 -1.903 -0.68 -1.088 -2.787 -0.952 -3.807 0.272zm-11.829 2.991c-1.088 0.204 -2.107 0.748 -2.243 1.156 -0.476 1.428 3.195 3.671 6.05 3.671 4.283 0 8.838 -3.399 6.526 -4.895 -1.02 -0.612 -7.41 -0.612 -10.333 0.068zM350.785 308.228c0 0.136 0.612 0.408 1.36 0.612s1.224 0.068 0.952 -0.272c-0.34 -0.612 -2.311 -0.884 -2.311 -0.34zm3.739 3.807c0.204 0.34 0.544 0.68 0.748 0.68 0.136 0 0.272 -0.34 0.272 -0.68 0 -0.408 -0.34 -0.68 -0.748 -0.68 -0.34 0 -0.476 0.272 -0.272 0.68zM199.866 408.297c-6.934 1.496 -21.074 6.866 -21.074 8.022 0 0.136 3.127 -0.884 7.002 -2.311 3.807 -1.428 9.993 -3.195 13.732 -4.011 12.373 -2.719 12.033 -2.651 8.158 -2.651 -1.836 0 -5.371 0.408 -7.818 0.952zm75.46 -61.727c0 0.34 0.476 0.612 1.02 0.612s0.816 -0.272 0.612 -0.612c-0.204 -0.272 -0.612 -0.544 -1.02 -0.544 -0.34 0 -0.612 0.272 -0.612 0.544zm-101.293 10.877c0 2.855 0.272 4.895 0.68 4.895 0.68 0 0.34 -8.702 -0.34 -9.381 -0.204 -0.204 -0.34 1.836 -0.34 4.487zm60.368 48.199c0.476 0.204 1.088 0.136 1.292 -0.068 0.272 -0.204 -0.136 -0.408 -0.884 -0.34 -0.748 0 -0.952 0.204 -0.408 0.408zm1.7 2.719c0.612 0.136 1.564 0.136 2.039 0 0.408 -0.204 -0.068 -0.34 -1.224 -0.34 -1.088 0 -1.496 0.136 -0.816 0.34zm-26.717 6.73c-2.107 0.544 -2.515 0.884 -1.36 0.884 0.952 0 2.651 -0.408 3.739 -0.952 2.515 -1.156 1.632 -1.088 -2.379 0.068zm37.526 15.568c-0.816 0.476 -2.243 1.496 -3.127 2.311 -0.816 0.816 -1.768 1.224 -1.971 0.952 -0.272 -0.204 -0.476 0.544 -0.476 1.7 0 2.447 0.136 2.515 2.583 1.224 1.02 -0.544 4.487 -2.039 7.75 -3.263s5.71 -2.447 5.439 -2.719c-0.952 -0.952 -8.634 -1.088 -10.197 -0.204zm16.859 0.816c0 0.68 7.002 7.682 7.682 7.682s0.612 -2.991 -0.136 -4.963c-0.408 -0.952 -1.224 -1.903 -1.903 -2.039 -3.195 -0.952 -5.642 -1.224 -5.642 -0.68zm-15.364 42.149c-1.632 1.632 -3.671 6.322 -3.671 8.43 0 5.303 8.09 9.11 13.936 6.39 1.971 -0.884 1.903 -0.884 -2.583 -0.952 -5.371 -0.068 -8.09 -1.224 -9.245 -3.943 -0.884 -2.243 -0.204 -5.099 1.971 -8.702 1.632 -2.583 1.428 -3.059 -0.408 -1.224zm-0.34 17.607c-0.476 0.612 -1.156 2.855 -1.428 4.963s-0.68 4.827 -0.952 5.982c-0.204 1.224 -0.204 2.787 0.068 3.399 0.748 1.836 2.583 -4.827 2.515 -8.838 -0.068 -1.836 0.204 -3.943 0.612 -4.691 0.952 -1.7 0.408 -2.243 -0.816 -0.816zm33.583 24.065c-2.107 0.816 -1.971 1.632 0.068 1.088 0.952 -0.204 3.127 0.068 4.895 0.68 1.971 0.68 4.147 0.884 5.642 0.68 1.36 -0.204 5.031 -0.68 8.226 -1.02 7.002 -0.748 6.866 -0.748 4.759 -1.428 -2.855 -0.884 -7.75 -0.748 -11.081 0.408 -2.923 1.02 -3.467 1.02 -6.39 0 -3.535 -1.224 -4.011 -1.224 -6.118 -0.408z"/></svg>