<?xml version="1.0" encoding="UTF-8" standalone="no"?>
<svg xmlns="http://www.w3.org/2000/svg" version="1.2" baseProfile="tiny" viewBox="0.00 0.00 808.00 153.00">
<path fill="#3d669d" d="
  M 391.92 11.56
  Q 392.10 10.82 392.78 11.17
  Q 393.78 11.70 393.79 13.25
  Q 394.04 69.73 393.96 127.05
  Q 393.96 128.48 392.53 128.53
  L 392.18 128.54
  Q 391.04 128.58 391.03 127.43
  Q 390.96 74.17 391.01 21.89
  C 391.02 18.30 391.00 15.18 391.92 11.56
  Z"
/>
<path fill="#2d7ca3" d="
  M 206.21 46.95
  C 207.06 46.50 207.98 45.65 208.77 45.18
  C 227.04 34.34 247.31 41.47 256.87 59.62
  Q 264.08 73.29 260.52 89.94
  C 255.08 115.38 228.00 128.62 205.76 112.96
  Q 204.77 112.27 203.77 112.03
  A 0.65 0.64 -6.4 0 0 203.04 112.94
  Q 203.87 114.60 204.05 116.48
  Q 204.28 118.76 201.99 118.86
  Q 194.50 119.18 186.96 118.96
  C 182.76 118.84 183.03 115.78 183.03 112.21
  Q 183.03 67.23 182.84 22.25
  Q 182.82 17.47 183.67 13.10
  A 1.38 1.38 0.0 0 1 185.02 11.99
  L 203.10 12.02
  A 1.32 1.30 -5.1 0 1 204.38 13.08
  Q 204.92 15.88 204.95 19.25
  Q 205.05 32.65 204.98 46.20
  A 0.84 0.84 0.0 0 0 206.21 46.95
  Z
  M 221.9691 101.1097
  A 21.18 18.18 90.3 0 0 240.2598 80.0252
  A 21.18 18.18 90.3 0 0 222.1909 58.7503
  A 21.18 18.18 90.3 0 0 203.9002 79.8348
  A 21.18 18.18 90.3 0 0 221.9691 101.1097
  Z"
/>
<path fill="#3d669d" d="
  M 443.75 42.00
  L 460.00 42.01
  Q 461.00 42.01 461.00 43.00
  L 461.00 59.12
  A 0.88 0.87 90.0 0 1 460.13 60.00
  L 444.99 60.01
  A 1.96 1.96 0.0 0 0 443.03 61.96
  Q 442.92 78.02 443.06 94.74
  Q 443.10 99.10 446.76 100.09
  C 450.43 101.09 459.05 97.69 460.22 102.66
  C 461.19 106.74 463.13 111.51 463.06 115.71
  A 1.46 1.45 -7.3 0 1 461.99 117.08
  C 450.50 120.29 424.95 121.94 421.72 104.49
  Q 420.76 99.33 420.82 91.75
  Q 421.08 57.00 420.99 22.79
  A 3.58 3.57 -9.7 0 1 423.39 19.40
  L 441.87 12.94
  A 0.83 0.83 0.0 0 1 442.97 13.73
  L 443.00 41.25
  Q 443.01 42.00 443.75 42.00
  Z"
/>
<path fill="#3d669d" d="
  M 506.4677 119.7812
  A 40.22 39.68 91.2 0 1 467.6387 78.7390
  A 40.22 39.68 91.2 0 1 508.1523 39.3588
  A 40.22 39.68 91.2 0 1 546.9813 80.4010
  A 40.22 39.68 91.2 0 1 506.4677 119.7812
  Z
  M 507.5307 100.2692
  A 20.71 16.60 89.5 0 0 523.9494 79.4151
  A 20.71 16.60 89.5 0 0 507.1693 58.8508
  A 20.71 16.60 89.5 0 0 490.7506 79.7049
  A 20.71 16.60 89.5 0 0 507.5307 100.2692
  Z"
/>
<path fill="#2982a5" d="
  M 139.0980 119.6694
  A 40.16 39.65 81.8 0 1 94.1254 85.5752
  A 40.16 39.65 81.8 0 1 127.6420 40.1706
  A 40.16 39.65 81.8 0 1 172.6146 74.2648
  A 40.16 39.65 81.8 0 1 139.0980 119.6694
  Z
  M 133.3500 101.1700
  A 21.23 18.21 90.0 0 0 151.5600 79.9400
  A 21.23 18.21 90.0 0 0 133.3500 58.7100
  A 21.23 18.21 90.0 0 0 115.1400 79.9400
  A 21.23 18.21 90.0 0 0 133.3500 101.1700
  Z"
/>
<path fill="#41609b" d="
  M 581.67 48.73
  C 599.83 32.28 626.72 39.57 633.09 63.78
  C 635.73 73.83 636.17 80.14 634.46 90.25
  Q 632.87 99.69 625.78 108.54
  Q 615.56 121.28 598.50 118.86
  C 592.21 117.97 587.01 114.76 582.35 111.08
  A 0.82 0.82 0.0 0 0 581.02 111.72
  L 580.99 141.26
  A 0.75 0.74 0.0 0 1 580.24 142.00
  L 559.50 142.00
  A 0.50 0.50 0.0 0 1 559.00 141.50
  L 558.98 43.01
  A 1.01 1.01 0.0 0 1 560.00 42.00
  L 580.34 42.04
  A 0.69 0.69 0.0 0 1 581.03 42.72
  L 581.06 48.46
  A 0.37 0.36 -21.1 0 0 581.67 48.73
  Z
  M 596.5937 100.3400
  A 20.79 16.12 90.1 0 0 612.7500 79.5781
  A 20.79 16.12 90.1 0 0 596.6663 58.7600
  A 20.79 16.12 90.1 0 0 580.5100 79.5219
  A 20.79 16.12 90.1 0 0 596.5937 100.3400
  Z"
/>
<path fill="#465999" d="
  M 689.10 111.22
  A 0.68 0.68 0.0 0 0 688.25 111.33
  C 673.42 127.04 645.06 119.98 642.86 97.48
  C 642.13 90.07 646.45 81.74 652.16 77.39
  C 661.46 70.28 676.13 72.09 687.01 71.98
  A 1.74 1.73 85.0 0 0 688.70 69.96
  C 687.81 64.67 686.28 60.45 680.51 59.09
  Q 675.01 57.79 668.49 60.25
  C 665.40 61.41 662.56 63.88 659.59 65.84
  A 0.69 0.68 50.1 0 1 658.73 65.76
  C 654.86 61.96 650.84 58.80 647.41 54.60
  Q 646.14 53.04 647.49 51.75
  Q 657.31 42.37 668.26 40.58
  C 681.63 38.38 702.31 40.51 708.29 55.49
  C 709.93 59.60 710.79 64.71 710.90 69.61
  Q 711.39 92.94 710.85 116.42
  A 0.61 0.61 0.0 0 1 710.23 117.02
  L 690.81 116.91
  A 1.77 1.77 0.0 0 1 689.06 114.94
  Q 689.20 113.67 689.45 112.24
  Q 689.58 111.51 689.10 111.22
  Z
  M 688.76 86.30
  C 681.65 85.21 662.65 84.15 665.10 97.01
  Q 666.07 102.08 671.22 102.83
  C 682.26 104.43 687.66 97.54 689.78 87.79
  A 1.24 1.24 0.0 0 0 688.76 86.30
  Z"
/>
<path fill="#2982a5" d="
  M 74.36 68.01
  C 70.26 62.04 63.25 56.31 55.45 58.59
  C 41.82 62.57 36.87 80.26 43.56 92.32
  C 48.54 101.31 59.60 103.38 68.15 97.84
  C 70.67 96.21 73.05 93.45 75.48 91.15
  Q 75.87 90.78 76.33 91.05
  C 82.61 94.69 88.03 97.19 90.91 100.56
  A 0.73 0.72 39.8 0 1 90.99 101.39
  C 82.55 116.36 68.09 122.46 50.99 119.06
  C 9.05 110.70 7.95 51.58 49.73 41.53
  C 66.35 37.54 82.23 42.76 90.58 58.11
  A 1.97 1.96 60.1 0 1 89.88 60.73
  L 77.05 68.58
  A 2.00 1.99 -32.9 0 1 74.36 68.01
  Z"
/>
<path fill="#3473a0" d="
  M 323.98 63.79
  C 324.84 66.92 327.47 68.77 330.75 69.96
  C 341.37 73.83 366.12 73.43 367.16 90.50
  C 367.67 98.95 365.98 107.02 359.09 112.61
  C 345.90 123.30 318.25 120.94 303.79 112.32
  A 1.93 1.91 -63.6 0 1 303.00 109.94
  L 308.12 97.36
  Q 309.04 95.12 311.19 96.22
  C 319.37 100.40 336.17 106.17 344.45 99.99
  C 349.99 95.84 346.36 90.72 340.75 90.04
  Q 328.29 88.53 316.54 84.17
  C 309.78 81.66 303.98 76.32 303.83 68.75
  C 303.64 59.95 306.57 51.25 314.08 46.09
  C 327.41 36.94 346.61 39.52 361.31 44.94
  Q 362.86 45.51 363.76 46.10
  A 0.96 0.96 0.0 0 1 364.20 46.96
  C 364.01 51.55 360.67 56.75 359.03 60.97
  A 1.96 1.95 -66.6 0 1 356.37 62.03
  C 348.61 58.34 329.67 53.02 324.10 62.84
  Q 323.84 63.29 323.98 63.79
  Z"
/>
<path fill="#3473a0" d="
  M 272.20 117.51
  Q 272.04 115.74 272.03 113.25
  L 271.99 41.94
  A 0.95 0.95 0.0 0 1 272.94 40.99
  L 292.26 41.02
  A 0.74 0.74 0.0 0 1 293.00 41.76
  L 293.00 116.97
  A 1.95 1.95 0.0 0 1 291.11 118.92
  Q 282.69 119.18 273.75 118.89
  Q 272.32 118.84 272.20 117.51
  Z"
/>
<path fill="#465999" d="
  M 752.74 98.98
  L 785.11 99.03
  A 1.83 1.83 0.0 0 1 786.94 100.85
  L 787.02 116.49
  Q 787.03 117.00 786.51 117.00
  L 723.86 117.00
  A 0.90 0.88 87.5 0 1 722.98 116.18
  Q 722.40 109.69 723.01 102.99
  C 723.31 99.57 725.55 97.35 727.67 94.92
  Q 736.51 84.76 745.49 74.72
  Q 751.37 68.14 756.72 61.46
  A 0.92 0.91 -70.5 0 0 756.01 59.97
  L 725.88 60.01
  A 0.87 0.87 0.0 0 1 725.01 59.14
  L 724.98 42.76
  A 0.76 0.75 -0.0 0 1 725.74 42.01
  L 783.98 42.01
  A 1.92 1.91 87.0 0 1 785.88 43.73
  Q 786.63 50.81 785.82 57.87
  Q 785.73 58.61 785.24 59.18
  L 751.90 97.13
  Q 750.28 98.98 752.74 98.98
  Z"
/>
</svg>
